<svg xmlns="http://www.w3.org/2000/svg" viewBox="0 0 160 160">
  <ellipse cx="80" cy="145" rx="50" ry="7" fill="#3f1206" opacity=".14"/>
  <!-- oso -->
  <g>
    <circle cx="56" cy="34" r="12" fill="#9a5a3a"/><circle cx="56" cy="34" r="6" fill="#e8c4a8"/>
    <circle cx="104" cy="34" r="12" fill="#9a5a3a"/><circle cx="104" cy="34" r="6" fill="#e8c4a8"/>
    <ellipse cx="80" cy="96" rx="34" ry="30" fill="#8a4e30"/>
    <circle cx="80" cy="54" r="30" fill="#9a5a3a"/>
    <ellipse cx="80" cy="64" rx="13" ry="10" fill="#e8c4a8"/>
    <ellipse cx="80" cy="59" rx="5" ry="3.6" fill="#3f1206"/>
    <path d="M80 62V67M74 69C77 72 83 72 86 69" fill="none" stroke="#3f1206" stroke-width="2.4" stroke-linecap="round"/>
    <circle cx="69" cy="48" r="3.4" fill="#3f1206"/><circle cx="91" cy="48" r="3.4" fill="#3f1206"/>
    <circle cx="70" cy="47" r="1" fill="#fff"/><circle cx="92" cy="47" r="1" fill="#fff"/>
    <ellipse cx="63" cy="59" rx="4.5" ry="3" fill="#e0645f" opacity=".45"/><ellipse cx="97" cy="59" rx="4.5" ry="3" fill="#e0645f" opacity=".45"/>
    <path d="M60 36C64 30 70 27 76 26" fill="none" stroke="#fff" stroke-width="3" stroke-linecap="round" opacity=".22"/>
    <!-- corazón que abraza -->
    <path d="M80 104c-11-8-17-13.5-17-20 0-5 4-8.6 8.6-8.6 3.6 0 6.5 2 8.4 5 1.9-3 4.8-5 8.4-5 4.6 0 8.6 3.6 8.6 8.6 0 6.5-6 12-17 20Z" fill="#e0645f"/>
    <path d="M69 84C69 81 71 79 74 79" fill="none" stroke="#fff" stroke-width="2.4" stroke-linecap="round" opacity=".5"/>
    <ellipse cx="54" cy="86" rx="9" ry="12" fill="#9a5a3a" transform="rotate(-30 54 86)"/>
    <ellipse cx="106" cy="86" rx="9" ry="12" fill="#9a5a3a" transform="rotate(30 106 86)"/>
  </g>
  <!-- caja -->
  <path d="M30 100H130V134Q130 142 122 142H38Q30 142 30 134Z" fill="#f6b6b0"/>
  <path d="M26 96H134V106H26Z" fill="#f1a39c"/>
  <rect x="26" y="94" width="108" height="10" rx="3" fill="#f8c3bc"/>
  <rect x="72" y="94" width="16" height="48" fill="#e0645f"/>
  <path d="M34 110V134" stroke="#fff" stroke-width="4" stroke-linecap="round" opacity=".35"/>
  <g fill="#fff" opacity=".55"><circle cx="48" cy="120" r="2"/><circle cx="58" cy="130" r="2"/><circle cx="108" cy="118" r="2"/><circle cx="118" cy="130" r="2"/><circle cx="100" cy="132" r="2"/></g>
</svg>
